<svg fill="#0062d1" data-name="Layer 1" xmlns="http://www.w3.org/2000/svg" viewBox="0 0 122.88 72.06"><path d="M48.79 31.83A1.29 1.29 0 1 0 50 33.11a1.23 1.23 0 0 0-1.17-1.28Z" style="fill:#fff;fill-rule:evenodd"/><path d="M98.22 61.09a9 9 0 0 0-.1 1.37 9.61 9.61 0 1 0 19.06-1.71 5.87 5.87 0 0 0 5.7-5.82V36.1l-11.94-12.85H94.58v28.52H53.21a2.4 2.4 0 0 0-2.44 2.33v4.66a2.39 2.39 0 0 0 2.44 2.32H58a9.47 9.47 0 1 0 18.81 1.52 11 11 0 0 0-.11-1.51ZM26.16 2.58H22c-.18 0-.27.16-.32.33l-.61 2.21c-.05.17.14.33.31.33h3.11A8 8 0 0 0 24.13 8a7.71 7.71 0 1 0 15.41 0 7.84 7.84 0 0 0-7.7-8 7.56 7.56 0 0 0-5.68 2.58m-21 11.79v9.87A5.23 5.23 0 0 0 3.28 27L0 25l.1-13.79 5 3.16Zm2.1-4.48 5 2.82-6.47.83-4.61-2.86 6-.79ZM6.14 23.62v-9.1l6.74-.86.22 6.44 2.37-1.61 2.37 1.34-.49-6.74 4-.47v4.86a12.4 12.4 0 0 0-3.79 3.39c-.48.56-1 1.13-1.42 1.58a1.4 1.4 0 0 0-.17.17c-1 1.24-4.59.91-6.85.7-.92-.08 1.18.1-.47-.05a4.5 4.5 0 0 0-2.55.35Zm10.58-11.49-4.83-2.86 2-.2L20 11.76l-3.31.37Zm22.19 29.34 1.43 9.94 9.71-6.33v-23.7a3 3 0 0 1 3-3h35.77a3 3 0 0 1 3 3v28H53.93l-33 21.07h-9.85l11.58-7.54a3.7 3.7 0 0 1-.07-1.49l1-10.85 1-11c-1.6-4.29-.19-7.14-.29-12.18-2.87 2.88-5.09 5-9.45 5.14-1.38 0-3.58-.16-5-.31C8.16 32 7 32.11 5.92 30.59c-1.65-2.4.53-5.16 2.67-4.71 2.42.21 6.77.76 8.42-1.27 1.7-1.63 3-3.9 5.24-4.63C34.77 15.92 37.88 17.51 39 22a127 127 0 0 1 .57 13.6 28 28 0 0 1-.62 5.88ZM33.33 56a3.5 3.5 0 0 1-.22-.76l-1.27-11.88-1.28 14.42zm30.37 6.61a3.64 3.64 0 1 0 7.28 0 3.64 3.64 0 0 0-7.28 0m47.3-1.84v-.17a1 1 0 0 1-.11-.16l-.12-.13h-.29L109 59h-2.73v.28a3.55 3.55 0 0 0-.41 1.69 3.69 3.69 0 1 0 7-1.68Zm-.12-32 6 7.17v2.62h-16.31V28.8Z" style="fill-rule:evenodd"/></svg>