<svg fill="#0062d1" xmlns="http://www.w3.org/2000/svg" viewBox="0 0 256 256" xml:space="preserve"><path d="M185.4 64c-3.3 1.4-3.9 3.1-3.9 9.1v5.3l-8.1.2-8.2.2-.2 7.8-.2 7.9h64.6v-16h-16v-4.9c0-5.9-1-8.3-4-9.6-2.8-1.2-21.2-1.2-24 0m20.1 11.1v3.4h-16.6v-6.8h16.6z"/><path d="M154.1 78.9c-.7.1-2.1 1.1-3.1 2.1l-1.8 1.8-.2 40.2-.1 40.1L164 178l15.1 14.9 31.3-.2 31.3-.2 1.6-1.5c.9-.9 1.8-2.5 2.2-3.7.9-3.4.7-101.1-.2-103.8-1.1-3.2-3.4-4.5-8.1-4.9l-4-.2v6.8l3 .2 2.9.2.2 50.2.1 50.3h-57.1l-.2-11.1-.2-11.1-2-1.8-2-1.8h-22.2v-75h6.2l-.2-3.3-.2-3.2-3.1-.1c-1.6 0-3.6.1-4.3.2m21.2 94.7v6.6l-6.6-6.5c-3.6-3.6-6.7-6.5-6.9-6.6-.1-.1 2.8-.1 6.6-.1h6.9z"/><path d="M169.7 106.7c-1.7.9-3 1.9-3 2.2 0 .2 1.8 3.7 4 7.6l4 7.1V159h20l2 3.7c1.2 2 2.2 3.7 2.5 3.7.2 0 1.3-1.6 2.3-3.6l1.8-3.5 8.8-.2 8.7-.2v-46.6H178l-2-3.7c-1.1-2-2.3-3.7-2.7-3.7s-2 .8-3.6 1.8m46.8 18.6v8l-3.3-1.9-3.4-1.9-5.3 9.9c-2.9 5.4-5.5 9.6-5.8 9.3-.2-.2-3.9-6.6-8-14-4.2-7.4-8.1-14.4-8.8-15.5l-1.2-2h35.8zM186 143.5c3.3 5.8 5.9 10.8 5.9 10.9 0 .2-2.9.3-6.5.3H179v-11.5c0-6.5.2-11.2.6-10.9.2.3 3.2 5.4 6.4 11.2m30.5 1.7v9.5h-5.3c-2.9 0-5.2-.2-5-.6.4-1.2 10-18.5 10.1-18.5.1.1.2 4.4.2 9.6M98 116c-14.2 1.4-22.6 3.9-32.9 9.7-6.1 3.4-9.2 5.5-14 9.5l-3.8 3.2h-9.8c-7.8 0-10.5.2-13.2 1.1-7 2.3-11.1 6.9-13.2 14.9-.9 3.7-1.4 20-.6 22.1.3.9 2 1 12.2 1h11.8l.7-3.7c.9-4.8 2.3-7.7 5.3-10.8 4.9-4.9 12-6.8 18.2-5 8.3 2.5 13 8 14.4 17.1l.4 2.3h82l-6-6-6-6v-27.3h-32.6v-17.8h2.7c6.9 0 21.6 3.8 27.3 7.1l2.6 1.5v-7.2l-6.3-2.3c-3.4-1.2-7.6-2.6-9.3-2.9-4.7-.7-23.2-1.1-29.9-.5m7.3 13.2v8.9H84.1c-20.9 0-21.3 0-20.6-1.2.9-1.7 6.2-6.1 10.4-8.7 6.5-3.9 20.2-7.7 28.2-7.9l3.2-.1z"/><path d="M47.5 161.5c-5.7 2.6-9.1 7.5-9.6 13.5-.8 8.8 5.5 16.5 14.4 17.6 8.4 1 16.7-5.8 17.8-14.4.7-6.3-2.6-12.6-8.2-16-3.9-2.2-10.4-2.6-14.4-.7m10.7 6.1c4.7 2.3 6.8 7.5 5 12.2-2.8 6.8-10.4 8.6-16 3.7-5.2-4.5-3.9-13.1 2.3-15.9 3.4-1.5 5.7-1.5 8.7 0"/></svg>