<svg fill="#0062d1" data-name="Layer 1" xmlns="http://www.w3.org/2000/svg" viewBox="0 0 97.23 122.88"><path d="M17.29 112.22V81.61h13.78c5.87 1 11.68 4.19 17.52 7.88h10.69c4.85.29 7.38 5.2 2.68 8.42-3.75 2.76-8.68 2.6-13.78 2.15-3.5-.17-3.65 4.52 0 4.54 1.27.1 2.65-.2 3.85-.2 6.31 0 11.55-1.21 14.74-6.22l1.58-3.74 16-7.85c8-2.62 13.63 5.7 7.76 11.5a208 208 0 0 1-35.47 20.85c-8.78 5.34-17.57 5.16-26.33 0l-13-6.72ZM0 78.69h13.15v36.61H0zM59.69 2.43a2.66 2.66 0 0 1 .89-1.79A2.58 2.58 0 0 1 62.43 0h.18a2.61 2.61 0 0 1 2.27 2.72s0 .09 0 .13l-.38 5.54v.17a2.67 2.67 0 0 1-.87 1.64 2.6 2.6 0 0 1-1.85.63h-.18A2.57 2.57 0 0 1 60 10a2.6 2.6 0 0 1-.64-1.85.5.5 0 0 1 0-.13l.37-5.56Zm-29 8.44a2.61 2.61 0 0 1 0-3.67 2.6 2.6 0 0 1 3.67 0l4 4.06a2.6 2.6 0 0 1 0 3.67 2.63 2.63 0 0 1-1.84.75 2.6 2.6 0 0 1-1.83-.77l-4-4.06Zm-8 28.27a2.6 2.6 0 0 1-2.53-2.63A2.58 2.58 0 0 1 22.74 34h5.68a2.58 2.58 0 0 1 1.83.79 2.54 2.54 0 0 1 .75 1.85v.09a2.57 2.57 0 0 1-.77 1.69 2.62 2.62 0 0 1-1.85.74h-.1l-5.62-.06Zm71.87-4.9h.08a2.58 2.58 0 0 1 1.77.65 2.62 2.62 0 0 1 .87 1.79s0 .07 0 .08a2.58 2.58 0 0 1-.65 1.77 2.62 2.62 0 0 1-1.79.87l-5.67.35a2.6 2.6 0 0 1-.31-5.19c1.9-.12 3.8-.25 5.7-.35ZM84.32 11.16a2.58 2.58 0 0 1 3.62-.55 2.56 2.56 0 0 1 1 1.69 2.66 2.66 0 0 1-.48 1.93l-3.36 4.58a2.61 2.61 0 0 1-3.63.56 2.64 2.64 0 0 1-1-1.7 2.57 2.57 0 0 1 .53-1.92l3.37-4.59ZM66.94 77.73a11.65 11.65 0 0 1-4.42 4.06 11.06 11.06 0 0 1-4.93 1.28 10 10 0 0 1-5-1.2 10.2 10.2 0 0 1-2.87-2.34l17.17-1.8Zm2-9.47v1.5A16 16 0 0 1 68.9 72l-.41 1.6-20.81 2.13-.32-.85-.67-3.34v-1L69 68.26ZM50.18 39.52a7.5 7.5 0 0 1 2.58 1.68 19 19 0 0 1 1.68 1.8 69 69 0 0 1 5.83-7.4 49.4 49.4 0 0 1 6.11-5.86l.48-.16 5.23.23-1.09 1.1a92.5 92.5 0 0 0-8.41 9.93 114 114 0 0 0-8.37 12.38 32.8 32.8 0 0 0-4.32-7.61 22.7 22.7 0 0 0-5-5l5.24-1.12ZM38.28 25a23.9 23.9 0 0 1 5-5.44 22.5 22.5 0 0 1 6.55-3.66l.2-.06a23.8 23.8 0 0 1 5.47-1.2 25 25 0 0 1 5.93.12 25.7 25.7 0 0 1 10.77 4 24.3 24.3 0 0 1 5.61 5 22.2 22.2 0 0 1 3.62 6.41 25 25 0 0 1 1.08 4.08 23 23 0 0 1 .35 4.49 23.2 23.2 0 0 1-.61 5 26 26 0 0 1-1.68 4.86C79 52 76.43 55.24 73.9 58.43c-1.24 1.57-2.47 3.13-3.53 4.67a3.18 3.18 0 0 1-3 1.35l-18.7 1.94a3.18 3.18 0 0 1-3.38-2.29 27.5 27.5 0 0 0-1.58-4.16 16.7 16.7 0 0 0-1.9-3.12c-.9-1.12-1.82-2.27-2.74-3.64a27.6 27.6 0 0 1-2.61-4.8l-.06-.18a28.7 28.7 0 0 1-1.6-5.32 24.5 24.5 0 0 1-.39-5.74 24 24 0 0 1 1.05-5.88A28 28 0 0 1 38 25.41v-.06l.23-.35Z" style="fill-rule:evenodd"/></svg>