<svg fill='#0062d1' xmlns="http://www.w3.org/2000/svg" viewBox="0 0 122.88 118.27" xml:space="preserve"><path d="M9.77 9.18c-1.08 0-1.95-.87-1.95-1.95s.87-1.95 1.95-1.95h51.91V1.95c0-1.08.87-1.95 1.95-1.95s1.95.87 1.95 1.95v3.33h48.32c1.08 0 1.95.87 1.95 1.95s-.87 1.95-1.95 1.95h-4.49v49.8h4.7c1.08 0 1.95.87 1.95 1.95s-.87 1.95-1.95 1.95H65.85v5.53c.1.07.17.14.24.21l11.95 11.36c.77.73.8 1.99.07 2.75-.73.77-1.99.8-2.75.07l-9.48-9.02v9.89c0 1.08-.87 1.95-1.95 1.95s-1.95-.87-1.95-1.95V73.39l-9.89 9.41c-.77.73-2.02.73-2.75-.07-.73-.77-.73-2.02.07-2.75l11.95-11.36c.17-.17.42-.31.63-.42v-5.32H35.51c-1.08 0-1.95-.87-1.95-1.95s.87-1.95 1.95-1.95h69.99V9.18zm67.4 96.64c-8.69 0-2.97.68-1.78-8.76 1.77-14.12 15.19-14.12 17.17 0 1.27 9.08 6.72 8.76-1.78 8.76h-3.39c-.01 2.31-.37 3.49 2.03 4.79 1.22.66 3.5 1.16 5.45 1.92 2.97-2.54 8.24-.87 8.79-5.52.08-.71-1.59-3.41-1.97-4.71-.82-1.31-1.11-3.38-.22-4.77.36-.55.2-2.55.2-3.31 0-7.52 13.18-7.52 13.18 0 0 .95-.22 2.7.3 3.45.86 1.25.42 3.47-.31 4.63-.47 1.36-2.24 3.94-2.09 4.71 1.28 6.51 10.15-.46 10.15 11.25H20.09c0-11.91 11.24-5.31 12.1-12.61.09-.8-1.78-3.82-2.21-5.28-.92-1.47-1.25-3.79-.24-5.34.4-.62.23-2.86.23-3.71 0-8.43 14.77-8.43 14.77 0 0 1.07-.25 3.03.33 3.86.97 1.4.47 3.89-.35 5.19-.52 1.53-2.51 4.41-2.34 5.28.62 3.15 8.47 5.29 11.21 6.45 1.54-.79 2.79-1.73 2.92-2.82.07-.57-1.27-2.72-1.57-3.76-.65-1.04-.89-2.7-.17-3.81.28-.44.16-2.04.16-2.64 0-6 10.52-6.01 10.52 0 0 .76-.17 2.15.24 2.75.69 1 .33 2.77-.25 3.69-.37 1.09-1.79 3.14-1.67 3.76.77 3.94 5.03 1.7 7.04 4.45 1.9-1.5 5.68-1.91 7.99-3.29 2.11-1.26 1.75-2.53 1.74-4.63zM.01 46.73c-.28-5.43 4.18-6.86 10.24-6.48l7.66 8.53 7.49-8.43 18.57-.1c7 .8 5.54 8.15 0 8.43H31.82l-2.86 17.17-2.16 11.17c-.56 1.85-1.67 3.03-3.31 3.66l-10.56.07c-2.13-.31-3.38-1.57-3.76-3.76l-1.64-9.25c-4.32.42-5.78-2.65-6.24-7.07L.05 46.7zm17.46-29.71c5.19 0 9.41 4.22 9.41 9.41s-4.22 9.41-9.41 9.41-9.41-4.22-9.41-9.41 4.21-9.41 9.41-9.41m.34 27.76-5.96-6.55 1.74-1.39c2.58 1.08 5.16 1.08 7.7 0l2.4 1.43z"/></svg>