<svg fill='#0062d1' xmlns="http://www.w3.org/2000/svg" viewBox="0 0 53.24 53.24" xml:space="preserve"><g stroke-width="0"/><g stroke-linecap="round" stroke-linejoin="round"/><circle cx="26.62" cy="26.619" r="3.166"/><path d="M26.62 0C11.919 0 0 11.918 0 26.62s11.919 26.62 26.62 26.62c14.7 0 26.62-11.918 26.62-26.621C53.24 11.918 41.32 0 26.62 0M13.303 42.058a1.5 1.5 0 0 1-1.061.438c-.384 0-.768-.146-1.061-.438-8.513-8.513-8.513-22.364 0-30.877a1.5 1.5 0 1 1 2.121 2.121c-3.557 3.558-5.516 8.287-5.516 13.317s1.959 9.76 5.516 13.317a1.5 1.5 0 0 1 .001 2.122m6.01-8.132a1.5 1.5 0 1 1-2.122 2.121c-5.198-5.198-5.198-13.657 0-18.855a1.5 1.5 0 1 1 2.121 2.121c-4.027 4.029-4.027 10.583.001 14.613m7.307-1.141c-3.4 0-6.166-2.766-6.166-6.166s2.766-6.166 6.166-6.166c3.399 0 6.166 2.766 6.166 6.166s-2.766 6.166-6.166 6.166m8.366 3.701a1.5 1.5 0 0 1-1.061-2.559c4.028-4.028 4.028-10.584 0-14.613a1.5 1.5 0 1 1 2.121-2.121c5.198 5.198 5.198 13.657 0 18.855a1.5 1.5 0 0 1-1.06.438m7.073 5.572c-.293.293-.678.438-1.062.438s-.769-.146-1.062-.438a1.5 1.5 0 0 1 0-2.12 18.7 18.7 0 0 0 5.517-13.318c0-5.03-1.959-9.76-5.517-13.317a1.5 1.5 0 1 1 2.121-2.121 21.7 21.7 0 0 1 6.396 15.438c0 5.831-2.27 11.314-6.393 15.438"/></svg>