<svg fill="#0062d1" xmlns="http://www.w3.org/2000/svg" viewBox="0 0 256 140" xml:space="preserve" stroke="#0062d1"><g stroke-width="0"/><g stroke-linecap="round" stroke-linejoin="round"/><path d="M103.123 97.792c-11.112 0-20.104 8.992-20.104 20.104S92.011 138 103.123 138s20.104-8.992 20.104-20.104-8.992-20.104-20.104-20.104zm0 27.805c-4.221 0-7.7-3.479-7.7-7.7s3.479-7.7 7.7-7.7 7.7 3.479 7.7 7.7c0 4.22-3.479 7.7-7.7 7.7zm112.643-27.661c-11.112 0-20.104 8.992-20.104 20.104s8.992 20.104 20.104 20.104 20.104-8.992 20.104-20.104-8.992-20.104-20.104-20.104zm0 27.804c-4.221 0-7.7-3.479-7.7-7.7s3.479-7.7 7.7-7.7 7.7 3.479 7.7 7.7c.001 4.221-3.479 7.7-7.7 7.7zM57 106.678c0 3.898 3.486 7.24 7.384 7.24h10.438c.804 0 1.593-1.009 1.74-1.74 2.193-12.574 13.33-21.259 26.562-21.259s24.198 8.721 26.391 21.295c.146.804.682 1.463 1.486 1.463h20v-111H57zm195.26-7.546h-4.349V79.997c0-6.433-4.801-11.307-11.307-11.307h-20.875c-.439 0-.956-.233-1.249-.525L181.948 36.5c-1.462-1.462-2.829-2.747-4.949-2.82h-19v80h30c.804 0 1.489-.768 1.635-1.499 2.193-12.574 12.899-22.115 26.131-22.115s24.198 9.577 26.391 22.151c.146.804 1.471 1.704 2.275 1.704h1.74c4.167 0 7.828-3.751 7.828-7.845v-5.41c.001-.806-.861-1.534-1.739-1.534zm-53.057-30.443H168.76c-.877 0-1.74-.862-1.74-1.74L167 44.364c0-.877.882-1.769 1.76-1.769h6.089c.439 0 1.325.483 1.691.775l23.534 22.71c.876 1.096.518 2.609-.871 2.609zM47 49.678H14v-8h33zm0 22H2v8h45zm0-15H9v8h38z"/></svg>