<svg fill='#0062d1' xmlns="http://www.w3.org/2000/svg" viewBox="0 0 256 256" xml:space="preserve"><path d="M46.7 93.3h135.6v15.8h44.6l1.4 4.9 17.4 45 .3 1v26.9h-19.2c-.9 4.4-3.1 8.3-6.2 11.3-4.1 4.1-9.8 6.7-16.1 6.7s-11.9-2.6-16-6.7c-3.1-3.1-5.2-7-6.2-11.3h-44.5c-.9 4.4-3.1 8.3-6.2 11.3-4.1 4.1-9.8 6.7-16.1 6.7s-11.9-2.6-16.1-6.7c-3.1-3.1-5.3-7-6.2-11.3H46.7v-35.5H31l-3-10.7h18.7zm75.7-28.6h47.2l2.1 7.5h-47.2zM73.1 51h67.1l3 10.7H76.1zM10 69.9h94.4l4.2 15H14.2zm112 105.9c-1.6-1.6-3.9-2.6-6.5-2.6-2.5 0-4.8 1-6.5 2.6s-2.6 3.9-2.6 6.5c0 2.5 1 4.8 2.6 6.5 1.7 1.6 3.9 2.6 6.5 2.6 2.5 0 4.8-1 6.5-2.6s2.6-3.9 2.6-6.5-1-4.8-2.6-6.5m103.4-2.5h6.9v-11.5l-15.7-39h-28.4v43.6l.1-.1c4.1-4.1 9.8-6.7 16-6.7 6.3 0 11.9 2.6 16.1 6.7 2.2 1.9 3.9 4.4 5 7m-14.4 2.5c-1.6-1.6-3.9-2.6-6.5-2.6-2.5 0-4.8 1-6.5 2.6-1.6 1.6-2.6 3.9-2.6 6.5 0 2.5 1 4.8 2.6 6.5 1.6 1.6 3.9 2.6 6.5 2.6 2.5 0 4.8-1 6.5-2.6s2.6-3.9 2.6-6.5-1-4.8-2.6-6.5"/></svg>
