<svg xmlns="http://www.w3.org/2000/svg" width="700" height="700" viewBox="-107 156.5 700 700"><defs><clipPath id="a"><path fill="none" d="M1.046 231.474H483.71v521.56H1.046z"/></clipPath><clipPath id="b"><path fill="none" d="M-102.876 160.637h692.66v694.231h-692.66z"/></clipPath><clipPath id="c"><path fill="none" d="M-102.878 160.637h690.51v690.708h-690.51z"/></clipPath></defs><path transform="scale(1 1.4)" vector-effect="non-scaling-stroke" fill="none" font-family="none" font-weight="none" font-size="none" text-anchor="none" style="mix-blend-mode:normal" d="M-107 111.786h700v500h-700z"/><g fill="none" stroke-width="none" stroke-miterlimit="10" font-family="none" font-weight="none" font-size="none" text-anchor="none" style="mix-blend-mode:normal"><g fill="#a1ebff" stroke="gray" stroke-width="5" clip-path="url(#a)"><path d="M283.41 640.004c0 35.999 27.007 65.182 60.322 65.182s60.322-29.183 60.322-65.182c0-41.484-60.322-148.15-60.322-148.15s-60.322 106.667-60.322 148.15zm-202.71 0c0 35.999 27.008 65.182 60.323 65.182s60.322-29.183 60.322-65.182c0-41.484-60.322-148.15-60.322-148.15S80.7 598.521 80.7 640.004z"/></g><g fill="#a1ebff" stroke="gray" stroke-width="5" clip-path="url(#b)"><path d="M302.34 704.42c0 47.917 38.757 86.762 86.567 86.762s86.568-38.845 86.568-86.762c0-55.219-86.568-197.198-86.568-197.198S302.34 649.202 302.34 704.42zm-290.906 0c0 47.917 38.758 86.762 86.568 86.762s86.567-38.845 86.567-86.762c0-55.219-86.567-197.198-86.567-197.198S11.434 649.202 11.434 704.42z"/></g><g clip-path="url(#c)"><path d="M124.123 722.038c0 65.328 52.944 118.288 118.254 118.288s118.253-52.96 118.253-118.288c0-75.278-118.253-268.846-118.253-268.846S124.123 646.76 124.123 722.038z" fill="#51d1f5" stroke="gray" stroke-width="5"/></g></g></svg>