<svg xmlns="http://www.w3.org/2000/svg" xmlns:xlink="http://www.w3.org/1999/xlink" width="500" zoomAndPan="magnify" viewBox="0 0 375 374.999991" height="500" preserveAspectRatio="xMidYMid meet" version="1.0"><defs><g/><clipPath id="7f6ddb8c62"><path d="M 225 125 L 254.128906 125 L 254.128906 155.597656 L 225 155.597656 Z M 225 125 " clip-rule="nonzero"/></clipPath><clipPath id="3ae160c617"><path d="M 201.628906 121.097656 L 249 121.097656 L 249 152 L 201.628906 152 Z M 201.628906 121.097656 " clip-rule="nonzero"/></clipPath></defs><g fill="#003366" fill-opacity="1"><g transform="translate(51.738282, 210.005273)"><g><path d="M 21.5 -50.5625 L 21.5 -34.71875 L 34.046875 -50.5625 L 56.4375 -50.5625 L 35.46875 -24.609375 L 57.78125 10.109375 L 36.34375 10.109375 L 23.59375 -9.90625 L 21.5 -7.28125 L 21.5 10.109375 L 3.375 10.109375 L 3.375 -50.5625 Z M -2.015625 -55.953125 L -2.015625 15.5 L 61.015625 15.5 L 61.015625 -55.953125 Z M -2.015625 -55.953125 "/></g></g></g><g fill="#003366" fill-opacity="1"><g transform="translate(110.718736, 210.005273)"><g><path d="M 19.890625 -50.5625 L 39.4375 -50.5625 L 57.984375 10.109375 L 39.03125 10.109375 L 37.015625 2.296875 L 22.25 2.296875 L 20.296875 10.109375 L 1.34375 10.109375 Z M 29.671875 -26.421875 L 26.296875 -13.34375 L 33.03125 -13.34375 Z M -2.015625 -55.953125 L -2.015625 15.5 L 61.359375 15.5 L 61.359375 -55.953125 Z M -2.015625 -55.953125 "/></g></g></g><g fill="#003366" fill-opacity="1"><g transform="translate(170.036218, 210.005273)"><g><path d="M 3.375 -50.5625 L 26.359375 -50.5625 C 29.910156 -50.5625 33.238281 -50.226562 36.34375 -49.5625 C 37.914062 -49.238281 39.375 -48.773438 40.71875 -48.171875 C 42.070312 -47.566406 43.3125 -46.859375 44.4375 -46.046875 C 46.632812 -44.378906 48.40625 -42.132812 49.75 -39.3125 C 51.0625 -36.34375 51.71875 -32.722656 51.71875 -28.453125 C 51.71875 -24.003906 51.0625 -20.273438 49.75 -17.265625 C 48.40625 -14.203125 46.316406 -11.816406 43.484375 -10.109375 L 54.40625 10.109375 L 32.96875 10.109375 L 24.8125 -6.46875 L 21.5 -6.46875 L 21.5 10.109375 L 3.375 10.109375 Z M 24.75 -34.109375 L 21.5 -34.109375 L 21.5 -23.0625 L 24.75 -23.0625 C 27.9375 -23.0625 30.226562 -23.421875 31.625 -24.140625 C 33.019531 -24.859375 33.71875 -26.316406 33.71875 -28.515625 C 33.71875 -29.773438 33.515625 -30.8125 33.109375 -31.625 C 32.566406 -32.382812 31.957031 -32.945312 31.28125 -33.3125 C 30.5625 -33.625 29.617188 -33.847656 28.453125 -33.984375 C 27.867188 -34.023438 27.269531 -34.054688 26.65625 -34.078125 C 26.050781 -34.097656 25.414062 -34.109375 24.75 -34.109375 Z M -2.015625 -55.953125 L -2.015625 15.5 L 57.3125 15.5 L 57.3125 -55.953125 Z M -2.015625 -55.953125 "/></g></g></g><g fill="#003366" fill-opacity="1"><g transform="translate(225.309323, 210.005273)"><g><path d="M 4.046875 -50.5625 L 22.109375 -50.5625 L 22.109375 10.109375 L 4.046875 10.109375 Z M -2.015625 -55.953125 L -2.015625 15.5 L 28.1875 15.5 L 28.1875 -55.953125 Z M -2.015625 -55.953125 "/></g></g></g><g fill="#003366" fill-opacity="1"><g transform="translate(251.462939, 210.005273)"><g><path d="M 43.421875 9.234375 L 28.59375 9.234375 L 20.5625 -16.71875 L 20.03125 10.109375 L 2.703125 10.109375 L 5.859375 -50.5625 L 26.5 -50.5625 L 35.9375 -20.96875 L 45.515625 -50.5625 L 66.140625 -50.5625 L 69.3125 10.109375 L 51.984375 10.109375 L 51.4375 -16.71875 Z M -2.015625 -55.953125 L -2.015625 15.5 L 73.828125 15.5 L 73.828125 -55.953125 Z M -2.015625 -55.953125 "/></g></g></g><g clip-path="url(#7f6ddb8c62)"><path fill="#003366" d="M 248.132812 125.160156 L 242.980469 132.578125 L 246.019531 139.03125 L 225.40625 154.5 L 229.042969 153.210938 C 231.441406 154.496094 234.183594 155.226562 237.09375 155.226562 C 246.515625 155.226562 254.152344 147.589844 254.152344 138.167969 C 254.152344 132.957031 251.816406 128.289062 248.132812 125.160156 " fill-opacity="1" fill-rule="nonzero"/></g><g clip-path="url(#3ae160c617)"><path fill="#a6a6a6" d="M 248.785156 121.835938 L 245.148438 123.125 C 242.75 121.839844 240.007812 121.109375 237.09375 121.109375 C 234.019531 121.109375 231.132812 121.921875 228.640625 123.347656 L 237.316406 123.347656 C 237.933594 123.347656 238.433594 123.847656 238.433594 124.46875 C 238.433594 125.085938 237.933594 125.585938 237.316406 125.585938 L 214.613281 125.585938 C 214.328125 125.585938 214.050781 125.695312 213.84375 125.894531 C 213.839844 125.902344 213.832031 125.910156 213.824219 125.917969 C 213.105469 126.613281 213.589844 127.828125 214.589844 127.828125 L 233.8125 127.828125 C 234.429688 127.828125 234.929688 128.328125 234.929688 128.945312 C 234.929688 129.566406 234.429688 130.066406 233.8125 130.066406 L 202.992188 130.066406 C 202.570312 130.066406 202.183594 130.304688 202 130.683594 C 201.996094 130.6875 201.992188 130.695312 201.988281 130.703125 C 201.628906 131.441406 202.160156 132.304688 202.984375 132.304688 L 229.175781 132.304688 C 229.792969 132.304688 230.292969 132.804688 230.292969 133.425781 C 230.292969 134.042969 229.792969 134.542969 229.175781 134.542969 L 214.921875 134.542969 C 214.378906 134.542969 213.914062 134.9375 213.828125 135.472656 C 213.828125 135.480469 213.824219 135.488281 213.824219 135.496094 C 213.71875 136.171875 214.234375 136.78125 214.917969 136.78125 L 225.054688 136.78125 C 225.671875 136.78125 226.171875 137.285156 226.171875 137.902344 C 226.171875 138.519531 225.671875 139.023438 225.054688 139.023438 L 207.597656 139.023438 C 206.929688 139.023438 206.40625 139.605469 206.488281 140.265625 C 206.488281 140.273438 206.488281 140.28125 206.492188 140.289062 C 206.558594 140.847656 207.039062 141.261719 207.597656 141.261719 L 227.0625 141.261719 C 227.679688 141.261719 228.183594 141.761719 228.183594 142.378906 C 228.183594 143 227.679688 143.5 227.0625 143.5 L 218.394531 143.5 C 217.589844 143.5 217.046875 144.328125 217.371094 145.0625 C 217.375 145.070312 217.378906 145.078125 217.382812 145.085938 C 217.558594 145.484375 217.960938 145.738281 218.398438 145.738281 L 225.363281 145.738281 C 225.980469 145.738281 226.480469 146.242188 226.480469 146.859375 C 226.480469 147.476562 225.980469 147.976562 225.363281 147.976562 L 223.140625 147.976562 C 223.972656 149.164062 224.957031 150.238281 226.058594 151.171875 L 231.207031 143.753906 L 228.167969 137.304688 L 248.785156 121.835938 " fill-opacity="1" fill-rule="nonzero"/></g></svg>